<svg width="317" height="105" viewBox="0 0 317 105" fill="none" xmlns="http://www.w3.org/2000/svg">
<path d="M34.85 59.0285C34.85 66.4285 28.85 72.4285 21.45 72.4285C14.05 72.4285 8.04999 66.4285 8.04999 59.0285C8.04999 51.6285 14.05 45.6285 21.45 45.6285C28.85 45.6285 34.85 51.7285 34.85 59.0285Z" fill="#FC5421"/>
<path d="M130.05 53.7285C129.55 50.9285 127.15 46.9285 120.95 46.9285C116.25 46.9285 113.05 49.9285 113.05 53.3285C113.05 56.1285 114.85 58.3285 118.45 59.0285L125.05 60.3285C133.15 61.9285 137.55 66.8285 137.55 73.1285C137.55 80.0285 131.75 86.6285 121.15 86.6285C109.45 86.6285 104.05 79.3285 103.25 72.9285L110.55 70.9285C111.05 75.5285 114.45 79.8285 121.15 79.8285C126.65 79.8285 129.55 77.1285 129.55 73.7285C129.55 70.8285 127.35 68.5285 123.35 67.7285L116.85 66.4285C109.85 65.0285 105.15 60.6285 105.15 53.9285C105.15 46.4285 112.25 40.3285 120.85 40.3285C131.75 40.3285 135.95 46.7285 137.05 51.6285L130.05 53.7285Z" fill="white"/>
<path d="M165.05 70.3285C165.05 64.0285 160.85 60.7285 156.15 60.7285C151.55 60.7285 147.25 64.0285 147.25 70.3285C147.25 76.6285 151.45 80.0285 156.15 80.0285C160.95 80.0285 165.05 76.6285 165.05 70.3285ZM172.75 70.3285C172.75 79.7285 165.75 86.5285 156.25 86.5285C146.85 86.5285 139.85 79.7285 139.85 70.3285C139.85 61.0285 146.85 54.1285 156.25 54.1285C165.75 54.1285 172.75 60.9285 172.75 70.3285Z" fill="white"/>
<path d="M184.25 85.5285H176.65V55.0285H184.05V59.1285C186.15 55.6285 189.95 54.2285 193.45 54.2285C201.25 54.2285 204.95 59.6285 204.95 66.3285V85.6285H197.35V67.6285C197.35 63.8285 195.55 60.8285 190.85 60.8285C186.55 60.8285 184.25 64.0285 184.25 68.0285V85.5285Z" fill="white"/>
<path d="M224.85 80.1285C229.85 80.1285 233.25 76.0285 233.25 70.1285C233.25 64.2285 229.85 60.5285 224.85 60.5285C219.75 60.5285 216.25 64.3285 216.25 70.1285C216.25 76.0285 219.55 80.1285 224.85 80.1285ZM223.95 86.4285C214.65 86.4285 208.65 79.3285 208.65 70.2285C208.65 61.4285 214.75 54.2285 223.85 54.2285C229.45 54.2285 232.35 57.0285 233.15 59.1285V55.1285H240.55V80.0285C240.55 82.5285 240.85 85.0285 240.85 85.6285H233.65C233.55 84.9285 233.35 83.3285 233.35 81.2285C231.85 84.1285 228.55 86.4285 223.95 86.4285Z" fill="white"/>
<path d="M250.95 75.5285C251.25 78.3285 253.35 80.7285 257.35 80.7285C260.45 80.7285 262.15 79.1285 262.15 77.2285C262.15 75.6285 260.95 74.3285 258.45 73.8285L253.75 72.8285C248.15 71.6285 245.25 68.1285 245.25 63.9285C245.25 58.6285 250.35 54.1285 256.95 54.1285C265.85 54.1285 268.65 59.6285 269.15 62.6285L262.75 64.4285C262.45 62.6285 261.15 59.8285 256.85 59.8285C254.15 59.8285 252.25 61.4285 252.25 63.3285C252.25 64.9285 253.45 66.1285 255.45 66.5285L260.25 67.4285C266.25 68.7285 269.35 72.2285 269.35 76.7285C269.35 81.3285 265.45 86.5285 257.35 86.5285C248.15 86.5285 244.65 80.7285 244.25 77.3285L250.95 75.5285Z" fill="white"/>
<path d="M273.55 55.0285H281.05V85.5285H273.55V55.0285ZM277.25 39.6285C279.95 39.6285 282.25 41.7285 282.25 44.4285C282.25 47.0285 280.05 49.1285 277.25 49.1285C274.55 49.1285 272.35 47.0285 272.35 44.4285C272.35 41.7285 274.55 39.6285 277.25 39.6285Z" fill="white"/>
<path d="M300.95 79.9285C305.95 79.9285 309.35 76.0285 309.35 70.1285C309.35 64.3285 305.95 60.6285 301.05 60.6285C296.05 60.6285 292.45 64.3285 292.45 70.1285C292.35 76.0285 295.75 79.9285 300.95 79.9285ZM316.65 80.0285C316.65 82.8285 316.95 85.1285 316.95 85.6285H309.75C309.65 84.9285 309.45 82.9285 309.45 81.7285C307.95 84.3285 304.65 86.4285 300.15 86.4285C291.05 86.4285 284.95 79.5285 284.95 70.3285C284.95 61.5285 291.15 54.3285 300.05 54.3285C305.55 54.3285 308.35 56.7285 309.35 58.7285V40.3285H316.75V80.0285H316.65Z" fill="white"/>
<path d="M19.15 104.629C12.45 104.629 6.04999 102.829 0.0499878 99.3285L9.64999 83.1285C15.85 86.8285 22.75 86.6285 30.95 82.7285C38.85 78.9285 44.95 72.7285 47.35 69.7285C52.75 62.8285 56.05 57.7285 65.15 44.1285C68.35 39.3285 72.25 33.4285 77.15 26.1285C90.65 5.92852 107.35 1.12852 119.05 0.628518C131.45 0.128518 140.65 4.22849 141.65 4.72849L133.65 21.8285H133.75C133.65 21.8285 127.45 19.0285 119.25 19.5285C108.85 20.2285 100.05 25.9285 92.85 36.6285C87.95 43.9285 84.05 49.8285 80.95 54.6285C71.65 68.7285 68.15 73.9285 62.35 81.4285C57.95 87.0285 49.65 94.8285 39.35 99.8285C32.35 103.029 25.65 104.629 19.15 104.629Z" fill="#FC5421"/>
</svg>
