<svg width="317" height="105" viewBox="0 0 317 105" fill="none" xmlns="http://www.w3.org/2000/svg">
<path d="M34.85 59.0707C34.85 66.4707 28.85 72.4707 21.45 72.4707C14.05 72.4707 8.04999 66.4707 8.04999 59.0707C8.04999 51.6707 14.05 45.6707 21.45 45.6707C28.85 45.6707 34.85 51.7707 34.85 59.0707Z" fill="#FC5421"/>
<path d="M130.05 53.7707C129.55 50.9707 127.15 46.9707 120.95 46.9707C116.25 46.9707 113.05 49.9707 113.05 53.3707C113.05 56.1707 114.85 58.3707 118.45 59.0707L125.05 60.3707C133.15 61.9707 137.55 66.8707 137.55 73.1707C137.55 80.0707 131.75 86.6707 121.15 86.6707C109.45 86.6707 104.05 79.3707 103.25 72.9707L110.55 70.9707C111.05 75.5707 114.45 79.8707 121.15 79.8707C126.65 79.8707 129.55 77.1707 129.55 73.7707C129.55 70.8707 127.35 68.5707 123.35 67.7707L116.85 66.4707C109.85 65.0707 105.15 60.6707 105.15 53.9707C105.15 46.4707 112.25 40.3707 120.85 40.3707C131.75 40.3707 135.95 46.7707 137.05 51.6707L130.05 53.7707Z" fill="#35363B"/>
<path d="M165.05 70.3707C165.05 64.0707 160.85 60.7707 156.15 60.7707C151.55 60.7707 147.25 64.0707 147.25 70.3707C147.25 76.6707 151.45 80.0707 156.15 80.0707C160.95 80.0707 165.05 76.6707 165.05 70.3707ZM172.75 70.3707C172.75 79.7707 165.75 86.5707 156.25 86.5707C146.85 86.5707 139.85 79.7707 139.85 70.3707C139.85 61.0707 146.85 54.1707 156.25 54.1707C165.75 54.1707 172.75 60.9707 172.75 70.3707Z" fill="#35363B"/>
<path d="M184.25 85.5707H176.65V55.0707H184.05V59.1707C186.15 55.6707 189.95 54.2707 193.45 54.2707C201.25 54.2707 204.95 59.6707 204.95 66.3707V85.6707H197.35V67.6707C197.35 63.8707 195.55 60.8707 190.85 60.8707C186.55 60.8707 184.25 64.0707 184.25 68.0707V85.5707Z" fill="#35363B"/>
<path d="M224.85 80.1707C229.85 80.1707 233.25 76.0707 233.25 70.1707C233.25 64.2707 229.85 60.5707 224.85 60.5707C219.75 60.5707 216.25 64.3707 216.25 70.1707C216.25 76.0707 219.55 80.1707 224.85 80.1707ZM223.95 86.4707C214.65 86.4707 208.65 79.3707 208.65 70.2707C208.65 61.4707 214.75 54.2707 223.85 54.2707C229.45 54.2707 232.35 57.0707 233.15 59.1707V55.1707H240.55V80.0707C240.55 82.5707 240.85 85.0707 240.85 85.6707H233.65C233.55 84.9707 233.35 83.3707 233.35 81.2707C231.85 84.1707 228.55 86.4707 223.95 86.4707Z" fill="#35363B"/>
<path d="M250.95 75.5707C251.25 78.3707 253.35 80.7707 257.35 80.7707C260.45 80.7707 262.15 79.1707 262.15 77.2707C262.15 75.6707 260.95 74.3707 258.45 73.8707L253.75 72.8707C248.15 71.6707 245.25 68.1707 245.25 63.9707C245.25 58.6707 250.35 54.1707 256.95 54.1707C265.85 54.1707 268.65 59.6707 269.15 62.6707L262.75 64.4707C262.45 62.6707 261.15 59.8707 256.85 59.8707C254.15 59.8707 252.25 61.4707 252.25 63.3707C252.25 64.9707 253.45 66.1707 255.45 66.5707L260.25 67.4707C266.25 68.7707 269.35 72.2707 269.35 76.7707C269.35 81.3707 265.45 86.5707 257.35 86.5707C248.15 86.5707 244.65 80.7707 244.25 77.3707L250.95 75.5707Z" fill="#35363B"/>
<path d="M273.55 55.0707H281.05V85.5707H273.55V55.0707ZM277.25 39.6707C279.95 39.6707 282.25 41.7707 282.25 44.4707C282.25 47.0707 280.05 49.1707 277.25 49.1707C274.55 49.1707 272.35 47.0707 272.35 44.4707C272.35 41.7707 274.55 39.6707 277.25 39.6707Z" fill="#35363B"/>
<path d="M300.95 79.9707C305.95 79.9707 309.35 76.0707 309.35 70.1707C309.35 64.3707 305.95 60.6707 301.05 60.6707C296.05 60.6707 292.45 64.3707 292.45 70.1707C292.35 76.0707 295.75 79.9707 300.95 79.9707ZM316.65 80.0707C316.65 82.8707 316.95 85.1707 316.95 85.6707H309.75C309.65 84.9707 309.45 82.9707 309.45 81.7707C307.95 84.3707 304.65 86.4707 300.15 86.4707C291.05 86.4707 284.95 79.5707 284.95 70.3707C284.95 61.5707 291.15 54.3707 300.05 54.3707C305.55 54.3707 308.35 56.7707 309.35 58.7707V40.3707H316.75V80.0707H316.65Z" fill="#35363B"/>
<path d="M19.15 104.671C12.45 104.671 6.04999 102.871 0.0499878 99.3707L9.64999 83.1707C15.85 86.8707 22.75 86.6707 30.95 82.7707C38.85 78.9707 44.95 72.7707 47.35 69.7707C52.75 62.8707 56.05 57.7707 65.15 44.1707C68.35 39.3707 72.25 33.4707 77.15 26.1707C90.65 5.97072 107.35 1.17072 119.05 0.670724C131.45 0.170724 140.65 4.2707 141.65 4.7707L133.65 21.8707H133.75C133.65 21.8707 127.45 19.0707 119.25 19.5707C108.85 20.2707 100.05 25.9707 92.85 36.6707C87.95 43.9707 84.05 49.8707 80.95 54.6707C71.65 68.7707 68.15 73.9707 62.35 81.4707C57.95 87.0707 49.65 94.8707 39.35 99.8707C32.35 103.071 25.65 104.671 19.15 104.671Z" fill="#FC5421"/>
</svg>
